<svg width="625" height="224" viewBox="0 0 625 224" fill="none" xmlns="http://www.w3.org/2000/svg">
<mask id="mask0_668_1400" style="mask-type:alpha" maskUnits="userSpaceOnUse" x="0" y="32" width="159" height="160">
<rect y="32.5" width="159" height="159" rx="44.8462" fill="#D9D9D9"/>
</mask>
<g mask="url(#mask0_668_1400)">
<path d="M159.042 32.5H0V191.542H159.042V32.5Z" fill="#E72264"/>
<path d="M83.3251 56.5C60.5013 56.5 42 74.9828 42 97.784C42 98.2309 42.0077 98.6739 42.0231 99.1169V138.791C42.0231 138.791 42.0231 138.795 42.0231 138.798V142.832C42.0231 142.832 42.0231 142.832 42.027 142.828V152.801C42.027 152.878 42.0231 152.951 42.0231 153.028C42.0231 153.105 42.027 153.182 42.0308 153.26V153.444H42.0347C42.2545 161.106 48.536 167.251 56.2596 167.251C63.9833 167.251 70.3303 161.106 70.5501 153.444V138.798H82.3573C82.6773 138.806 83.0012 138.81 83.3213 138.81C106.145 138.81 124.646 120.585 124.646 97.784C124.646 74.9828 106.149 56.5 83.3251 56.5ZM83.3251 110.304C80.7994 110.304 74.3984 110.304 71.7416 110.304H70.5617V97.7879C70.5617 90.773 76.3033 85.0833 83.3251 85.0833C90.347 85.0833 96.0424 90.773 96.0424 97.7879C96.0424 104.803 90.347 110.308 83.3251 110.308V110.304Z" fill="white"/>
<path opacity="0.15" d="M55.901 138.806H70.5308V153.448H70.4653C70.2455 161.11 63.964 167.255 56.2403 167.255C48.5167 167.255 42.2314 161.11 42.0116 153.448H42.0077V153.263C42.0077 153.186 42 153.109 42 153.032C42 152.955 42.0039 152.882 42.0039 152.805V151.773C42.4434 144.92 48.9177 138.806 55.8972 138.806H55.901Z" fill="#1D1D1B" fill-opacity="0.5"/>
<g opacity="0.05">
<path opacity="0.5" d="M42.0229 121.194V138.799C42.0229 123.29 55.0679 110.524 70.5538 110.312V104.695C59.0435 105.905 48.852 112.095 42.0229 121.194Z" fill="black" fill-opacity="0.5"/>
<path d="M42.0464 152.047C45.4089 149.581 49.4885 148.129 53.8921 148.129H70.5579V138.799H56.279C48.7366 138.799 42.5708 144.643 42.0464 152.047Z" fill="black" fill-opacity="0.5"/>
</g>
<g opacity="0.05">
<path opacity="0.5" d="M70.5538 110.312V105.211C58.9471 106.348 48.7055 112.673 42.0229 121.961V138.799C42.0229 123.29 55.0679 110.524 70.5538 110.312Z" fill="black" fill-opacity="0.5"/>
<path d="M56.2787 138.799C48.9407 138.799 42.9022 144.334 42.1001 151.453C45.4587 148.834 49.6078 147.285 54.1078 147.285H70.5538V138.803H56.2749L56.2787 138.799Z" fill="black" fill-opacity="0.5"/>
</g>
<g opacity="0.05">
<path opacity="0.5" d="M70.5538 110.312V105.724C58.843 106.783 48.5358 113.263 42.0229 122.759V138.795C42.0229 123.286 55.0679 110.52 70.5538 110.308V110.312Z" fill="black" fill-opacity="0.5"/>
<path d="M56.2788 138.799C49.1451 138.799 43.2415 144.026 42.1772 150.856C45.5166 148.086 49.7351 146.434 54.3238 146.434H70.5538V138.799H56.2749H56.2788Z" fill="black" fill-opacity="0.5"/>
</g>
<g opacity="0.05">
<path opacity="0.5" d="M70.5538 110.312V106.24C58.7234 107.218 48.3468 113.875 42.0229 123.602V138.799C42.0229 123.29 55.0679 110.523 70.5538 110.312Z" fill="black" fill-opacity="0.5"/>
<path d="M56.2787 138.799C49.3494 138.799 43.5769 143.733 42.2812 150.275C45.5936 147.351 49.8699 145.586 54.5434 145.586H70.5576V138.799H56.2787Z" fill="black" fill-opacity="0.5"/>
</g>
<g opacity="0.05">
<path opacity="0.5" d="M70.5538 110.311V106.76C58.5846 107.646 48.1271 114.51 42.0229 124.491V138.798C42.0229 123.29 55.0679 110.523 70.5538 110.311Z" fill="black" fill-opacity="0.5"/>
<path d="M56.2789 138.799C49.5578 138.799 43.928 143.441 42.4126 149.685C45.6787 146.611 50.009 144.735 54.7596 144.735H70.554V138.795H56.2751L56.2789 138.799Z" fill="black" fill-opacity="0.5"/>
</g>
<g opacity="0.05">
<path opacity="0.5" d="M70.5538 110.311V107.28C58.4265 108.073 47.8687 115.173 42.0229 125.447V138.798C42.0229 123.29 55.0679 110.523 70.5538 110.311Z" fill="black" fill-opacity="0.5"/>
<path d="M56.279 138.799C49.77 138.799 44.2867 143.152 42.5708 149.096C45.779 145.871 50.1518 143.888 54.9795 143.888H70.5579V138.799H56.279Z" fill="black" fill-opacity="0.5"/>
</g>
<g opacity="0.05">
<path opacity="0.5" d="M70.5538 110.311V107.804C58.2414 108.493 47.5641 115.878 42.0229 126.483V138.798C42.0229 123.29 55.0679 110.523 70.5538 110.311Z" fill="black" fill-opacity="0.5"/>
<path d="M56.2789 138.799C49.9897 138.799 44.653 142.867 42.752 148.51C45.8869 145.14 50.3021 143.04 55.1915 143.04H70.554V138.799H56.2751H56.2789Z" fill="black" fill-opacity="0.5"/>
</g>
<g opacity="0.05">
<path opacity="0.5" d="M70.5538 110.312V108.332C58.0139 108.909 47.1939 116.641 42.0229 127.635V138.799C42.0229 123.29 55.0679 110.523 70.5538 110.312Z" fill="black" fill-opacity="0.5"/>
<path d="M56.2787 138.799C50.2055 138.799 45.0229 142.593 42.96 147.936C46.0101 144.415 50.4522 142.193 55.4111 142.193H70.5576V138.799H56.2787Z" fill="black" fill-opacity="0.5"/>
</g>
<g opacity="0.05">
<path opacity="0.5" d="M70.5538 110.312V108.871C57.7247 109.33 46.7196 117.496 42.0229 128.972V138.799C42.0229 123.29 55.0679 110.524 70.5538 110.312Z" fill="black" fill-opacity="0.5"/>
<path d="M56.2789 138.799C50.4254 138.799 45.3972 142.324 43.1992 147.362C46.1414 143.691 50.6144 141.345 55.6311 141.345H70.5578V138.799H56.2789Z" fill="black" fill-opacity="0.5"/>
</g>
</g>
<path d="M230 165.4C223.093 165.4 216.653 164.14 210.68 161.62C204.8 159.1 199.667 155.553 195.28 150.98C190.893 146.407 187.487 141.133 185.06 135.16C182.727 129.093 181.56 122.607 181.56 115.7C181.56 108.793 182.727 102.353 185.06 96.38C187.487 90.3133 190.847 85.04 195.14 80.56C199.527 76.08 204.66 72.58 210.54 70.06C216.42 67.54 222.767 66.28 229.58 66.28C236.953 66.28 243.533 67.5867 249.32 70.2C255.2 72.8133 260.333 76.4067 264.72 80.98L257.72 87.98C254.36 84.2467 250.3 81.3533 245.54 79.3C240.78 77.1533 235.46 76.08 229.58 76.08C224.167 76.08 219.173 77.06 214.6 79.02C210.12 80.98 206.153 83.78 202.7 87.42C199.34 90.9667 196.727 95.1667 194.86 100.02C193.087 104.78 192.2 110.007 192.2 115.7C192.2 121.393 193.133 126.667 195 131.52C196.867 136.373 199.48 140.62 202.84 144.26C206.2 147.807 210.167 150.56 214.74 152.52C219.313 154.48 224.307 155.46 229.72 155.46C235.88 155.46 241.34 154.387 246.1 152.24C250.953 150.093 255.06 147.153 258.42 143.42L265.42 150.56C261.127 155.133 255.993 158.773 250.02 161.48C244.047 164.093 237.373 165.4 230 165.4ZM285.21 164V98.2H295.01V164H285.21ZM295.01 125.64L290.95 123.82C290.95 115.513 292.957 108.933 296.97 104.08C301.077 99.2267 306.677 96.8 313.77 96.8C317.037 96.8 320.024 97.4067 322.73 98.62C325.437 99.74 327.957 101.56 330.29 104.08L323.85 110.94C322.264 109.167 320.49 107.907 318.53 107.16C316.664 106.413 314.517 106.04 312.09 106.04C307.05 106.04 302.944 107.72 299.77 111.08C296.597 114.347 295.01 119.2 295.01 125.64ZM372.974 165.4C366.347 165.4 360.421 163.907 355.194 160.92C349.967 157.933 345.814 153.827 342.734 148.6C339.747 143.373 338.254 137.493 338.254 130.96C338.254 124.52 339.747 118.733 342.734 113.6C345.721 108.373 349.781 104.267 354.914 101.28C360.047 98.2933 365.787 96.8 372.134 96.8C378.107 96.8 383.381 98.1533 387.954 100.86C392.621 103.567 396.261 107.347 398.874 112.2C401.581 116.96 402.934 122.467 402.934 128.72C402.934 129.467 402.887 130.353 402.794 131.38C402.701 132.313 402.514 133.433 402.234 134.74H345.254V126.34H396.914L393.414 129.42C393.507 124.567 392.667 120.413 390.894 116.96C389.214 113.413 386.741 110.707 383.474 108.84C380.301 106.88 376.427 105.9 371.854 105.9C367.094 105.9 362.941 106.927 359.394 108.98C355.847 111.033 353.047 113.927 350.994 117.66C349.034 121.3 348.054 125.64 348.054 130.68C348.054 135.72 349.081 140.153 351.134 143.98C353.281 147.807 356.221 150.793 359.954 152.94C363.781 155.087 368.167 156.16 373.114 156.16C377.127 156.16 380.814 155.46 384.174 154.06C387.534 152.567 390.381 150.373 392.714 147.48L399.014 153.92C395.934 157.56 392.107 160.407 387.534 162.46C383.054 164.42 378.201 165.4 372.974 165.4ZM450.686 165.4C444.433 165.4 438.833 163.907 433.886 160.92C428.939 157.84 425.019 153.733 422.126 148.6C419.326 143.467 417.926 137.68 417.926 131.24C417.926 124.707 419.326 118.873 422.126 113.74C425.019 108.513 428.939 104.407 433.886 101.42C438.833 98.34 444.386 96.8 450.546 96.8C455.586 96.8 460.066 97.8267 463.986 99.88C467.999 101.84 471.219 104.64 473.646 108.28C476.166 111.827 477.706 115.98 478.266 120.74V141.32C477.706 146.08 476.166 150.28 473.646 153.92C471.219 157.56 467.999 160.407 463.986 162.46C460.066 164.42 455.633 165.4 450.686 165.4ZM452.226 156.02C459.039 156.02 464.499 153.733 468.606 149.16C472.806 144.587 474.906 138.567 474.906 131.1C474.906 126.153 473.926 121.813 471.966 118.08C470.099 114.253 467.439 111.313 463.986 109.26C460.626 107.113 456.659 106.04 452.086 106.04C447.419 106.04 443.266 107.113 439.626 109.26C436.079 111.407 433.233 114.393 431.086 118.22C429.033 121.953 428.006 126.247 428.006 131.1C428.006 135.953 429.033 140.247 431.086 143.98C433.233 147.713 436.126 150.653 439.766 152.8C443.406 154.947 447.559 156.02 452.226 156.02ZM474.346 164V146.36L476.306 130.12L474.346 114.3V98.2H484.146V164H474.346ZM517.894 164V70.48H527.694V164H517.894ZM501.234 107.02V98.2H544.214V107.02H501.234ZM589.968 165.4C583.342 165.4 577.415 163.907 572.188 160.92C566.962 157.933 562.808 153.827 559.728 148.6C556.742 143.373 555.248 137.493 555.248 130.96C555.248 124.52 556.742 118.733 559.728 113.6C562.715 108.373 566.775 104.267 571.908 101.28C577.042 98.2933 582.782 96.8 589.128 96.8C595.102 96.8 600.375 98.1533 604.948 100.86C609.615 103.567 613.255 107.347 615.868 112.2C618.575 116.96 619.928 122.467 619.928 128.72C619.928 129.467 619.882 130.353 619.788 131.38C619.695 132.313 619.508 133.433 619.228 134.74H562.248V126.34H613.908L610.408 129.42C610.502 124.567 609.662 120.413 607.888 116.96C606.208 113.413 603.735 110.707 600.468 108.84C597.295 106.88 593.422 105.9 588.848 105.9C584.088 105.9 579.935 106.927 576.388 108.98C572.842 111.033 570.042 113.927 567.988 117.66C566.028 121.3 565.048 125.64 565.048 130.68C565.048 135.72 566.075 140.153 568.128 143.98C570.275 147.807 573.215 150.793 576.948 152.94C580.775 155.087 585.162 156.16 590.108 156.16C594.122 156.16 597.808 155.46 601.168 154.06C604.528 152.567 607.375 150.373 609.708 147.48L616.008 153.92C612.928 157.56 609.102 160.407 604.528 162.46C600.048 164.42 595.195 165.4 589.968 165.4Z" fill="#E72264"/>
<path d="M210.68 161.62L208.907 165.756C208.915 165.76 208.923 165.763 208.931 165.766L210.68 161.62ZM195.28 150.98L192.032 154.095L192.032 154.095L195.28 150.98ZM185.06 135.16L180.86 136.775C180.87 136.802 180.88 136.828 180.891 136.854L185.06 135.16ZM185.06 96.38L180.882 94.7087C180.877 94.72 180.873 94.7313 180.868 94.7427L185.06 96.38ZM195.14 80.56L191.925 77.4117C191.913 77.4232 191.902 77.4348 191.891 77.4464L195.14 80.56ZM210.54 70.06L212.313 74.1962L212.313 74.1962L210.54 70.06ZM249.32 70.2L247.468 74.3012C247.476 74.3049 247.484 74.3085 247.492 74.3121L249.32 70.2ZM264.72 80.98L267.902 84.162C269.634 82.4304 269.663 79.6322 267.968 77.865L264.72 80.98ZM257.72 87.98L254.375 90.9903C255.201 91.908 256.368 92.446 257.602 92.4784C258.836 92.5109 260.029 92.0349 260.902 91.162L257.72 87.98ZM245.54 79.3L243.69 83.4021C243.712 83.4123 243.735 83.4222 243.758 83.4319L245.54 79.3ZM214.6 79.02L212.827 74.8838C212.817 74.8883 212.807 74.8928 212.796 74.8973L214.6 79.02ZM202.7 87.42L199.435 84.3228L199.433 84.3251L202.7 87.42ZM194.86 100.02L190.66 98.4046C190.654 98.4194 190.649 98.4342 190.643 98.449L194.86 100.02ZM195 131.52L190.8 133.135L195 131.52ZM202.84 144.26L199.533 147.312C199.547 147.327 199.56 147.341 199.573 147.355L202.84 144.26ZM214.74 152.52L212.967 156.656L212.967 156.656L214.74 152.52ZM246.1 152.24L244.28 148.125C244.27 148.129 244.26 148.133 244.25 148.138L246.1 152.24ZM258.42 143.42L261.633 140.27C260.764 139.383 259.566 138.895 258.324 138.921C257.082 138.948 255.906 139.486 255.075 140.41L258.42 143.42ZM265.42 150.56L268.701 153.64C270.352 151.881 270.322 149.133 268.633 147.41L265.42 150.56ZM250.02 161.48L251.824 165.603C251.842 165.595 251.859 165.587 251.877 165.579L250.02 161.48ZM230 160.9C223.654 160.9 217.813 159.745 212.429 157.474L208.931 165.766C215.493 168.535 222.532 169.9 230 169.9V160.9ZM212.453 157.484C207.122 155.199 202.492 151.998 198.528 147.865L192.032 154.095C196.841 159.109 202.478 163.001 208.907 165.756L212.453 157.484ZM198.528 147.865C194.542 143.71 191.445 138.921 189.229 133.466L180.891 136.854C183.528 143.345 187.244 149.103 192.032 154.095L198.528 147.865ZM189.26 133.545C187.137 128.025 186.06 122.089 186.06 115.7H177.06C177.06 123.124 178.316 130.162 180.86 136.775L189.26 133.545ZM186.06 115.7C186.06 109.31 187.137 103.43 189.252 98.0173L180.868 94.7427C178.316 101.277 177.06 108.277 177.06 115.7H186.06ZM189.238 98.0513C191.462 92.4917 194.516 87.715 198.389 83.6736L191.891 77.4464C187.177 82.365 183.511 88.135 180.882 94.7087L189.238 98.0513ZM198.355 83.7083C202.322 79.6574 206.962 76.4892 212.313 74.1962L208.767 65.9238C202.358 68.6708 196.732 72.5026 191.925 77.4117L198.355 83.7083ZM212.313 74.1962C217.597 71.9316 223.336 70.78 229.58 70.78V61.78C222.197 61.78 215.243 63.1484 208.767 65.9238L212.313 74.1962ZM229.58 70.78C236.417 70.78 242.35 71.9898 247.468 74.3012L251.172 66.0988C244.717 63.1836 237.49 61.78 229.58 61.78V70.78ZM247.492 74.3121C252.847 76.6921 257.496 79.9496 261.472 84.095L267.968 77.865C263.17 72.8637 257.553 68.9346 251.148 66.0878L247.492 74.3121ZM261.538 77.798L254.538 84.798L260.902 91.162L267.902 84.162L261.538 77.798ZM261.065 84.9697C257.257 80.7386 252.658 77.4698 247.322 75.168L243.758 83.4319C247.942 85.2369 251.463 87.7548 254.375 90.9903L261.065 84.9697ZM247.39 75.1979C241.979 72.7577 236.017 71.58 229.58 71.58V80.58C234.903 80.58 239.581 81.5489 243.69 83.4021L247.39 75.1979ZM229.58 71.58C223.611 71.58 218.009 72.6634 212.827 74.8838L216.373 83.1561C220.338 81.4566 224.722 80.58 229.58 80.58V71.58ZM212.796 74.8973C207.751 77.1045 203.291 80.2585 199.435 84.3228L205.965 90.5172C209.015 87.3015 212.489 84.8555 216.404 83.1427L212.796 74.8973ZM199.433 84.3251C195.643 88.3262 192.724 93.0376 190.66 98.4046L199.06 101.635C200.729 97.2957 203.037 93.6072 205.967 90.5148L199.433 84.3251ZM190.643 98.449C188.661 103.769 187.7 109.535 187.7 115.7H196.7C196.7 110.479 197.512 105.791 199.077 101.591L190.643 98.449ZM187.7 115.7C187.7 121.893 188.717 127.72 190.8 133.135L199.2 129.905C197.55 125.614 196.7 120.894 196.7 115.7H187.7ZM190.8 133.135C192.861 138.493 195.768 143.234 199.533 147.312L206.147 141.208C203.192 138.006 200.873 134.254 199.2 129.905L190.8 133.135ZM199.573 147.355C203.363 151.355 207.841 154.459 212.967 156.656L216.513 148.384C212.492 146.661 209.037 144.258 206.107 141.165L199.573 147.355ZM212.967 156.656C218.149 158.877 223.751 159.96 229.72 159.96V150.96C224.862 150.96 220.478 150.083 216.513 148.384L212.967 156.656ZM229.72 159.96C236.405 159.96 242.513 158.794 247.95 156.342L244.25 148.138C240.167 149.979 235.355 150.96 229.72 150.96V159.96ZM247.92 156.355C253.321 153.967 257.956 150.662 261.765 146.43L255.075 140.41C252.164 143.645 248.586 146.22 244.28 148.125L247.92 156.355ZM255.207 146.57L262.207 153.71L268.633 147.41L261.633 140.27L255.207 146.57ZM262.139 147.48C258.267 151.604 253.624 154.906 248.163 157.381L251.877 165.579C258.362 162.64 263.986 158.662 268.701 153.64L262.139 147.48ZM248.216 157.357C242.882 159.691 236.834 160.9 230 160.9V169.9C237.913 169.9 245.212 168.495 251.824 165.603L248.216 157.357ZM285.21 164H280.71C280.71 166.485 282.725 168.5 285.21 168.5V164ZM285.21 98.2V93.7C282.725 93.7 280.71 95.7147 280.71 98.2H285.21ZM295.01 98.2H299.51C299.51 95.7147 297.496 93.7 295.01 93.7V98.2ZM295.01 164V168.5C297.496 168.5 299.51 166.485 299.51 164H295.01ZM295.01 125.64L293.17 129.746C294.562 130.37 296.176 130.247 297.456 129.417C298.737 128.588 299.51 127.166 299.51 125.64H295.01ZM290.95 123.82H286.45C286.45 125.593 287.492 127.201 289.11 127.926L290.95 123.82ZM296.97 104.08L293.535 101.173C293.524 101.186 293.513 101.199 293.502 101.212L296.97 104.08ZM322.73 98.62L320.89 102.726C320.929 102.744 320.969 102.761 321.01 102.778L322.73 98.62ZM330.29 104.08L333.571 107.16C335.189 105.437 335.198 102.757 333.592 101.023L330.29 104.08ZM323.85 110.94L320.497 113.941C321.338 114.881 322.535 115.425 323.796 115.44C325.058 115.455 326.268 114.94 327.131 114.02L323.85 110.94ZM318.53 107.16L316.859 111.338C316.882 111.347 316.905 111.356 316.928 111.365L318.53 107.16ZM299.77 111.08L302.998 114.216C303.013 114.2 303.027 114.185 303.042 114.17L299.77 111.08ZM289.71 164V98.2H280.71V164H289.71ZM285.21 102.7H295.01V93.7H285.21V102.7ZM290.51 98.2V164H299.51V98.2H290.51ZM295.01 159.5H285.21V168.5H295.01V159.5ZM296.851 121.534L292.791 119.714L289.11 127.926L293.17 129.746L296.851 121.534ZM295.45 123.82C295.45 116.223 297.279 110.768 300.438 106.948L293.502 101.212C288.635 107.099 286.45 114.803 286.45 123.82H295.45ZM300.406 106.987C303.552 103.268 307.828 101.3 313.77 101.3V92.3C305.526 92.3 298.602 95.1849 293.535 101.173L300.406 106.987ZM313.77 101.3C316.467 101.3 318.818 101.798 320.89 102.726L324.571 94.5137C321.229 93.0156 317.607 92.3 313.77 92.3V101.3ZM321.01 102.778C323.021 103.61 325.021 105.013 326.988 107.137L333.592 101.023C330.893 98.1074 327.853 95.8696 324.451 94.4619L321.01 102.778ZM327.009 101L320.569 107.86L327.131 114.02L333.571 107.16L327.009 101ZM327.204 107.939C325.203 105.703 322.85 103.99 320.132 102.955L316.928 111.365C318.131 111.823 319.324 112.63 320.497 113.941L327.204 107.939ZM320.202 102.982C317.706 101.984 314.974 101.54 312.09 101.54V110.54C314.06 110.54 315.622 110.843 316.859 111.338L320.202 102.982ZM312.09 101.54C305.937 101.54 300.604 103.643 296.499 107.99L303.042 114.17C305.283 111.797 308.164 110.54 312.09 110.54V101.54ZM296.543 107.944C292.267 112.346 290.51 118.517 290.51 125.64H299.51C299.51 119.883 300.927 116.348 302.998 114.216L296.543 107.944ZM355.194 160.92L357.427 157.013L357.427 157.013L355.194 160.92ZM342.734 148.6L338.827 150.833C338.837 150.85 338.847 150.867 338.857 150.885L342.734 148.6ZM342.734 113.6L346.623 115.863C346.629 115.853 346.635 115.843 346.641 115.833L342.734 113.6ZM387.954 100.86L385.662 104.733C385.673 104.739 385.685 104.746 385.696 104.753L387.954 100.86ZM398.874 112.2L394.912 114.333C394.928 114.364 394.945 114.394 394.962 114.424L398.874 112.2ZM402.794 131.38L407.272 131.828C407.273 131.814 407.274 131.801 407.275 131.787L402.794 131.38ZM402.234 134.74V139.24C404.356 139.24 406.189 137.758 406.634 135.683L402.234 134.74ZM345.254 134.74H340.754C340.754 137.225 342.769 139.24 345.254 139.24V134.74ZM345.254 126.34V121.84C342.769 121.84 340.754 123.855 340.754 126.34H345.254ZM396.914 126.34L399.887 129.718C401.292 128.481 401.785 126.503 401.124 124.751C400.463 122.999 398.786 121.84 396.914 121.84V126.34ZM393.414 129.42L388.915 129.333C388.88 131.117 389.903 132.752 391.521 133.502C393.139 134.253 395.048 133.977 396.387 132.798L393.414 129.42ZM390.894 116.96L386.827 118.886C386.848 118.93 386.869 118.973 386.891 119.016L390.894 116.96ZM383.474 108.84L381.109 112.669C381.153 112.696 381.197 112.722 381.241 112.747L383.474 108.84ZM359.394 108.98L361.649 112.874L361.649 112.874L359.394 108.98ZM350.994 117.66L347.051 115.491C347.044 115.503 347.038 115.515 347.032 115.527L350.994 117.66ZM351.134 143.98L347.169 146.108C347.182 146.132 347.195 146.157 347.209 146.182L351.134 143.98ZM359.954 152.94L357.711 156.841C357.725 156.849 357.738 156.857 357.752 156.865L359.954 152.94ZM384.174 154.06L385.905 158.214C385.937 158.2 385.969 158.186 386.002 158.172L384.174 154.06ZM392.714 147.48L395.931 144.333C395.032 143.414 393.783 142.924 392.499 142.985C391.214 143.047 390.018 143.654 389.211 144.655L392.714 147.48ZM399.014 153.92L402.449 156.827C403.949 155.055 403.854 152.433 402.231 150.773L399.014 153.92ZM387.534 162.46L389.338 166.583C389.351 166.577 389.364 166.571 389.377 166.565L387.534 162.46ZM372.974 160.9C367.049 160.9 361.906 159.573 357.427 157.013L352.961 164.827C358.935 168.241 365.645 169.9 372.974 169.9V160.9ZM357.427 157.013C352.885 154.418 349.296 150.873 346.611 146.315L338.857 150.885C342.331 156.78 347.049 161.449 352.961 164.827L357.427 157.013ZM346.641 146.367C344.076 141.878 342.754 136.779 342.754 130.96H333.754C333.754 138.208 335.419 144.869 338.827 150.833L346.641 146.367ZM342.754 130.96C342.754 125.246 344.07 120.252 346.623 115.863L338.844 111.337C335.424 117.215 333.754 123.794 333.754 130.96H342.754ZM346.641 115.833C349.241 111.283 352.738 107.752 357.177 105.17L352.651 97.3904C346.824 100.781 342.201 105.463 338.827 111.367L346.641 115.833ZM357.177 105.17C361.576 102.61 366.526 101.3 372.134 101.3V92.3C365.049 92.3 358.519 93.9764 352.651 97.3904L357.177 105.17ZM372.134 101.3C377.403 101.3 381.866 102.486 385.662 104.733L390.246 96.9874C384.895 93.8209 378.811 92.3 372.134 92.3V101.3ZM385.696 104.753C389.627 107.032 392.684 110.196 394.912 114.333L402.836 110.067C399.837 104.497 395.614 100.101 390.212 96.9674L385.696 104.753ZM394.962 114.424C397.231 118.415 398.434 123.134 398.434 128.72H407.434C407.434 121.799 405.93 115.505 402.786 109.976L394.962 114.424ZM398.434 128.72C398.434 129.291 398.398 130.035 398.312 130.973L407.275 131.787C407.377 130.672 407.434 129.643 407.434 128.72H398.434ZM398.316 130.932C398.245 131.646 398.092 132.591 397.834 133.797L406.634 135.683C406.936 134.275 407.156 132.981 407.272 131.828L398.316 130.932ZM402.234 130.24H345.254V139.24H402.234V130.24ZM349.754 134.74V126.34H340.754V134.74H349.754ZM345.254 130.84H396.914V121.84H345.254V130.84ZM393.941 122.962L390.441 126.042L396.387 132.798L399.887 129.718L393.941 122.962ZM397.913 129.507C398.017 124.092 397.085 119.165 394.897 114.904L386.891 119.016C388.249 121.661 388.997 125.041 388.915 129.333L397.913 129.507ZM394.961 115.034C392.904 110.693 389.809 107.277 385.707 104.933L381.241 112.747C383.672 114.136 385.523 116.134 386.827 118.886L394.961 115.034ZM385.839 105.011C381.809 102.523 377.074 101.4 371.854 101.4V110.4C375.781 110.4 378.792 111.237 381.109 112.669L385.839 105.011ZM371.854 101.4C366.431 101.4 361.475 102.575 357.139 105.086L361.649 112.874C364.406 111.278 367.756 110.4 371.854 110.4V101.4ZM357.139 105.086C352.854 107.566 349.483 111.07 347.051 115.491L354.937 119.829C356.612 116.784 358.84 114.5 361.649 112.874L357.139 105.086ZM347.032 115.527C344.649 119.951 343.554 125.057 343.554 130.68H352.554C352.554 126.223 353.418 122.649 354.956 119.793L347.032 115.527ZM343.554 130.68C343.554 136.343 344.712 141.529 347.169 146.108L355.099 141.852C353.449 138.778 352.554 135.097 352.554 130.68H343.554ZM347.209 146.182C349.745 150.702 353.26 154.282 357.711 156.841L362.197 149.039C359.181 147.305 356.816 144.911 355.059 141.778L347.209 146.182ZM357.752 156.865C362.334 159.435 367.496 160.66 373.114 160.66V151.66C368.838 151.66 365.228 150.739 362.156 149.015L357.752 156.865ZM373.114 160.66C377.66 160.66 381.942 159.865 385.905 158.214L382.443 149.906C379.685 151.055 376.594 151.66 373.114 151.66V160.66ZM386.002 158.172C390.022 156.385 393.44 153.748 396.217 150.305L389.211 144.655C387.321 146.999 385.046 148.748 382.346 149.948L386.002 158.172ZM389.497 150.627L395.797 157.067L402.231 150.773L395.931 144.333L389.497 150.627ZM395.579 151.013C392.955 154.113 389.683 156.562 385.691 158.355L389.377 166.565C394.532 164.251 398.912 161.007 402.449 156.827L395.579 151.013ZM385.73 158.337C381.857 160.032 377.623 160.9 372.974 160.9V169.9C378.778 169.9 384.25 168.808 389.338 166.583L385.73 158.337ZM433.886 160.92L431.507 164.74C431.525 164.751 431.542 164.762 431.56 164.772L433.886 160.92ZM422.126 148.6L418.175 150.755C418.185 150.773 418.196 150.791 418.206 150.81L422.126 148.6ZM422.126 113.74L418.189 111.561C418.184 111.569 418.18 111.577 418.175 111.585L422.126 113.74ZM433.886 101.42L436.212 105.272C436.229 105.262 436.247 105.251 436.264 105.24L433.886 101.42ZM463.986 99.88L461.898 103.866C461.935 103.886 461.973 103.905 462.011 103.924L463.986 99.88ZM473.646 108.28L469.902 110.776C469.926 110.813 469.952 110.85 469.978 110.886L473.646 108.28ZM478.266 120.74H482.766C482.766 120.564 482.756 120.389 482.735 120.214L478.266 120.74ZM478.266 141.32L482.735 141.846C482.756 141.671 482.766 141.496 482.766 141.32H478.266ZM473.646 153.92L469.946 151.359C469.931 151.38 469.916 151.402 469.902 151.424L473.646 153.92ZM463.986 162.46L465.998 166.485C466.011 166.479 466.023 166.472 466.036 166.466L463.986 162.46ZM468.606 149.16L465.292 146.116C465.28 146.129 465.269 146.141 465.258 146.153L468.606 149.16ZM471.966 118.08L467.921 120.053C467.941 120.093 467.961 120.132 467.982 120.172L471.966 118.08ZM463.986 109.26L461.563 113.052C461.604 113.078 461.645 113.103 461.686 113.128L463.986 109.26ZM439.626 109.26L437.34 105.384C437.325 105.393 437.311 105.401 437.296 105.41L439.626 109.26ZM431.086 118.22L427.161 116.018C427.155 116.029 427.149 116.04 427.143 116.051L431.086 118.22ZM431.086 143.98L427.143 146.149C427.157 146.174 427.171 146.198 427.185 146.223L431.086 143.98ZM474.346 164H469.846C469.846 166.485 471.861 168.5 474.346 168.5V164ZM474.346 146.36L469.878 145.821C469.857 146 469.846 146.18 469.846 146.36H474.346ZM476.306 130.12L480.774 130.659C480.817 130.296 480.817 129.929 480.772 129.567L476.306 130.12ZM474.346 114.3H469.846C469.846 114.485 469.857 114.67 469.88 114.853L474.346 114.3ZM474.346 98.2V93.7C471.861 93.7 469.846 95.7147 469.846 98.2H474.346ZM484.146 98.2H488.646C488.646 95.7147 486.631 93.7 484.146 93.7V98.2ZM484.146 164V168.5C486.631 168.5 488.646 166.485 488.646 164H484.146ZM450.686 160.9C445.183 160.9 440.399 159.596 436.212 157.068L431.56 164.772C437.266 168.217 443.683 169.9 450.686 169.9V160.9ZM436.264 157.1C431.966 154.424 428.573 150.874 426.046 146.39L418.206 150.81C421.465 156.593 425.912 161.256 431.507 164.74L436.264 157.1ZM426.076 146.445C423.673 142.038 422.426 137.005 422.426 131.24H413.426C413.426 138.355 414.979 144.895 418.175 150.755L426.076 146.445ZM422.426 131.24C422.426 125.37 423.678 120.292 426.076 115.895L418.175 111.585C414.974 117.454 413.426 124.044 413.426 131.24H422.426ZM426.063 115.919C428.588 111.357 431.963 107.838 436.212 105.272L431.56 97.5677C425.916 100.976 421.45 105.669 418.189 111.561L426.063 115.919ZM436.264 105.24C440.456 102.63 445.177 101.3 450.546 101.3V92.3C443.595 92.3 437.209 94.0497 431.507 97.6L436.264 105.24ZM450.546 101.3C454.961 101.3 458.707 102.195 461.898 103.866L466.074 95.8938C461.425 93.4586 456.211 92.3 450.546 92.3V101.3ZM462.011 103.924C465.324 105.541 467.927 107.814 469.902 110.776L477.39 105.784C474.512 101.466 470.675 98.1387 465.961 95.8364L462.011 103.924ZM469.978 110.886C472.017 113.757 473.316 117.178 473.797 121.266L482.735 120.214C482.096 114.782 480.315 109.897 477.314 105.674L469.978 110.886ZM473.766 120.74V141.32H482.766V120.74H473.766ZM473.797 140.794C473.316 144.885 472.013 148.373 469.946 151.359L477.346 156.481C480.319 152.187 482.096 147.275 482.735 141.846L473.797 140.794ZM469.902 151.424C467.915 154.404 465.287 156.74 461.936 158.454L466.036 166.466C470.712 164.074 474.524 160.716 477.39 156.416L469.902 151.424ZM461.973 158.435C458.755 160.045 455.025 160.9 450.686 160.9V169.9C456.241 169.9 461.377 168.795 465.998 166.485L461.973 158.435ZM452.226 160.52C460.162 160.52 466.896 157.8 471.954 152.167L465.258 146.153C462.103 149.667 457.916 151.52 452.226 151.52V160.52ZM471.92 152.204C477.032 146.638 479.406 139.453 479.406 131.1H470.406C470.406 137.68 468.58 142.535 465.292 146.116L471.92 152.204ZM479.406 131.1C479.406 125.551 478.303 120.47 475.95 115.988L467.982 120.172C469.549 123.157 470.406 126.756 470.406 131.1H479.406ZM476.01 116.107C473.783 111.542 470.539 107.921 466.286 105.392L461.686 113.128C464.34 114.706 466.415 116.965 467.921 120.053L476.01 116.107ZM466.409 105.468C462.223 102.794 457.389 101.54 452.086 101.54V110.54C455.93 110.54 459.028 111.433 461.563 113.052L466.409 105.468ZM452.086 101.54C446.701 101.54 441.743 102.787 437.34 105.384L441.912 113.136C444.789 111.44 448.137 110.54 452.086 110.54V101.54ZM437.296 105.41C433.045 107.983 429.665 111.555 427.161 116.018L435.011 120.422C436.8 117.232 439.113 114.83 441.956 113.11L437.296 105.41ZM427.143 116.051C424.676 120.537 423.506 125.595 423.506 131.1H432.506C432.506 126.898 433.389 123.37 435.029 120.389L427.143 116.051ZM423.506 131.1C423.506 136.605 424.676 141.663 427.143 146.149L435.029 141.811C433.389 138.83 432.506 135.302 432.506 131.1H423.506ZM427.185 146.223C429.712 150.618 433.156 154.126 437.48 156.676L442.052 148.924C439.096 147.18 436.753 144.809 434.987 141.737L427.185 146.223ZM437.48 156.676C441.883 159.273 446.841 160.52 452.226 160.52V151.52C448.277 151.52 444.929 150.62 442.052 148.924L437.48 156.676ZM478.846 164V146.36H469.846V164H478.846ZM478.814 146.899L480.774 130.659L471.838 129.581L469.878 145.821L478.814 146.899ZM480.772 129.567L478.812 113.747L469.88 114.853L471.84 130.673L480.772 129.567ZM478.846 114.3V98.2H469.846V114.3H478.846ZM474.346 102.7H484.146V93.7H474.346V102.7ZM479.646 98.2V164H488.646V98.2H479.646ZM484.146 159.5H474.346V168.5H484.146V159.5ZM517.894 164H513.394C513.394 166.485 515.408 168.5 517.894 168.5V164ZM517.894 70.48V65.98C515.408 65.98 513.394 67.9947 513.394 70.48H517.894ZM527.694 70.48H532.194C532.194 67.9947 530.179 65.98 527.694 65.98V70.48ZM527.694 164V168.5C530.179 168.5 532.194 166.485 532.194 164H527.694ZM501.234 107.02H496.734C496.734 109.505 498.748 111.52 501.234 111.52V107.02ZM501.234 98.2V93.7C498.748 93.7 496.734 95.7147 496.734 98.2H501.234ZM544.214 98.2H548.714C548.714 95.7147 546.699 93.7 544.214 93.7V98.2ZM544.214 107.02V111.52C546.699 111.52 548.714 109.505 548.714 107.02H544.214ZM522.394 164V70.48H513.394V164H522.394ZM517.894 74.98H527.694V65.98H517.894V74.98ZM523.194 70.48V164H532.194V70.48H523.194ZM527.694 159.5H517.894V168.5H527.694V159.5ZM505.734 107.02V98.2H496.734V107.02H505.734ZM501.234 102.7H544.214V93.7H501.234V102.7ZM539.714 98.2V107.02H548.714V98.2H539.714ZM544.214 102.52H501.234V111.52H544.214V102.52ZM572.188 160.92L574.421 157.013L574.421 157.013L572.188 160.92ZM559.728 148.6L555.821 150.833C555.831 150.85 555.841 150.867 555.852 150.885L559.728 148.6ZM559.728 113.6L563.618 115.863C563.624 115.853 563.63 115.843 563.636 115.833L559.728 113.6ZM604.948 100.86L602.656 104.733C602.668 104.739 602.679 104.746 602.691 104.753L604.948 100.86ZM615.868 112.2L611.906 114.333C611.923 114.364 611.94 114.394 611.957 114.424L615.868 112.2ZM619.788 131.38L624.266 131.828C624.267 131.814 624.269 131.801 624.27 131.787L619.788 131.38ZM619.228 134.74V139.24C621.35 139.24 623.184 137.758 623.629 135.683L619.228 134.74ZM562.248 134.74H557.748C557.748 137.225 559.763 139.24 562.248 139.24V134.74ZM562.248 126.34V121.84C559.763 121.84 557.748 123.855 557.748 126.34H562.248ZM613.908 126.34L616.881 129.718C618.287 128.481 618.78 126.503 618.119 124.751C617.458 122.999 615.781 121.84 613.908 121.84V126.34ZM610.408 129.42L605.909 129.333C605.875 131.117 606.897 132.752 608.515 133.502C610.134 134.253 612.042 133.977 613.381 132.798L610.408 129.42ZM607.888 116.96L603.822 118.886C603.842 118.93 603.863 118.973 603.885 119.016L607.888 116.96ZM600.468 108.84L598.104 112.669C598.147 112.696 598.191 112.722 598.236 112.747L600.468 108.84ZM576.388 108.98L578.643 112.874L578.643 112.874L576.388 108.98ZM567.988 117.66L564.045 115.491C564.039 115.503 564.033 115.515 564.026 115.527L567.988 117.66ZM568.128 143.98L564.163 146.108C564.177 146.132 564.19 146.157 564.204 146.182L568.128 143.98ZM576.948 152.94L574.705 156.841C574.719 156.849 574.733 156.857 574.747 156.865L576.948 152.94ZM601.168 154.06L602.899 158.214C602.932 158.2 602.964 158.186 602.996 158.172L601.168 154.06ZM609.708 147.48L612.925 144.333C612.026 143.414 610.777 142.924 609.493 142.985C608.209 143.047 607.013 143.654 606.206 144.655L609.708 147.48ZM616.008 153.92L619.444 156.827C620.943 155.055 620.849 152.433 619.225 150.773L616.008 153.92ZM604.528 162.46L606.332 166.583C606.345 166.577 606.358 166.571 606.372 166.565L604.528 162.46ZM589.968 160.9C584.044 160.9 578.901 159.573 574.421 157.013L569.956 164.827C575.929 168.241 582.64 169.9 589.968 169.9V160.9ZM574.421 157.013C569.88 154.418 566.291 150.873 563.605 146.315L555.852 150.885C559.326 156.78 564.044 161.449 569.956 164.827L574.421 157.013ZM563.636 146.367C561.07 141.878 559.748 136.779 559.748 130.96H550.748C550.748 138.208 552.413 144.869 555.821 150.833L563.636 146.367ZM559.748 130.96C559.748 125.246 561.065 120.252 563.618 115.863L555.839 111.337C552.419 117.215 550.748 123.794 550.748 130.96H559.748ZM563.636 115.833C566.235 111.283 569.732 107.752 574.171 105.17L569.645 97.3904C563.818 100.781 559.195 105.463 555.821 111.367L563.636 115.833ZM574.171 105.17C578.57 102.61 583.52 101.3 589.128 101.3V92.3C582.043 92.3 575.513 93.9764 569.645 97.3904L574.171 105.17ZM589.128 101.3C594.398 101.3 598.86 102.486 602.656 104.733L607.24 96.9874C601.89 93.8209 595.806 92.3 589.128 92.3V101.3ZM602.691 104.753C606.621 107.032 609.678 110.196 611.906 114.333L619.831 110.067C616.832 104.497 612.609 100.101 607.206 96.9674L602.691 104.753ZM611.957 114.424C614.226 118.415 615.428 123.134 615.428 128.72H624.428C624.428 121.799 622.924 115.505 619.78 109.976L611.957 114.424ZM615.428 128.72C615.428 129.291 615.392 130.035 615.307 130.973L624.27 131.787C624.371 130.672 624.428 129.643 624.428 128.72H615.428ZM615.311 130.932C615.239 131.646 615.087 132.591 614.828 133.797L623.629 135.683C623.93 134.275 624.151 132.981 624.266 131.828L615.311 130.932ZM619.228 130.24H562.248V139.24H619.228V130.24ZM566.748 134.74V126.34H557.748V134.74H566.748ZM562.248 130.84H613.908V121.84H562.248V130.84ZM610.936 122.962L607.436 126.042L613.381 132.798L616.881 129.718L610.936 122.962ZM614.908 129.507C615.012 124.092 614.08 119.165 611.891 114.904L603.885 119.016C605.244 121.661 605.992 125.041 605.909 129.333L614.908 129.507ZM611.955 115.034C609.899 110.693 606.803 107.277 602.701 104.933L598.236 112.747C600.667 114.136 602.518 116.134 603.822 118.886L611.955 115.034ZM602.833 105.011C598.804 102.523 594.068 101.4 588.848 101.4V110.4C592.775 110.4 595.786 111.237 598.104 112.669L602.833 105.011ZM588.848 101.4C583.426 101.4 578.469 102.575 574.134 105.086L578.643 112.874C581.401 111.278 584.751 110.4 588.848 110.4V101.4ZM574.134 105.086C569.849 107.566 566.477 111.07 564.045 115.491L571.931 119.829C573.606 116.784 575.835 114.5 578.643 112.874L574.134 105.086ZM564.026 115.527C561.644 119.951 560.548 125.057 560.548 130.68H569.548C569.548 126.223 570.413 122.649 571.951 119.793L564.026 115.527ZM560.548 130.68C560.548 136.343 561.706 141.529 564.163 146.108L572.094 141.852C570.444 138.778 569.548 135.097 569.548 130.68H560.548ZM564.204 146.182C566.74 150.702 570.255 154.282 574.705 156.841L579.192 149.039C576.176 147.305 573.811 144.911 572.053 141.778L564.204 146.182ZM574.747 156.865C579.328 159.435 584.491 160.66 590.108 160.66V151.66C585.833 151.66 582.222 150.739 579.15 149.015L574.747 156.865ZM590.108 160.66C594.655 160.66 598.937 159.865 602.899 158.214L599.438 149.906C596.68 151.055 593.589 151.66 590.108 151.66V160.66ZM602.996 158.172C607.016 156.385 610.435 153.748 613.211 150.305L606.206 144.655C604.316 146.999 602.041 148.748 599.341 149.948L602.996 158.172ZM606.492 150.627L612.792 157.067L619.225 150.773L612.925 144.333L606.492 150.627ZM612.573 151.013C609.95 154.113 606.677 156.562 602.685 158.355L606.372 166.565C611.526 164.251 615.907 161.007 619.444 156.827L612.573 151.013ZM602.725 158.337C598.852 160.032 594.618 160.9 589.968 160.9V169.9C595.773 169.9 601.245 168.808 606.332 166.583L602.725 158.337Z" fill="#E72264"/>
</svg>
